# File produced by Open Asset Import Library (http://www.assimp.sf.net)
# (assimp v3.1.6393133)

mtllib Diana.mtl

# vertex positions
v 12.580035 45.860123 30.445557
v -18.813860 52.743004 28.302578
v -7.984660 10.187481 18.375093
v -0.136821 7.799782 18.167511
v -17.600971 11.192455 5.666500
v -12.423585 7.446075 -11.776978
v 6.335838 2.520058 -9.033344
v 8.781545 2.999905 5.622126
v -33.409821 45.726139 2.353363
v 27.506813 32.735260 15.047371
v 20.644836 23.759340 -16.181021
v -18.756500 34.730888 -25.589769
v -2.210701 106.010880 11.133595
v 3.468216 107.812073 1.763248
v 6.384174 107.003288 -8.279906
v -11.414631 97.290192 -18.666071
v -16.480927 94.369675 -18.698730
v -14.718430 99.139465 7.905562
v -1.086052 102.925957 15.827058
v -30.161940 68.874573 14.015633
v -6.389479 65.934753 32.236572
v 7.232428 100.482971 14.117822
v 14.415100 98.818542 -11.072235
v 15.903198 88.748367 18.936905
v 23.981277 83.401657 -0.110271
v 24.151289 81.130684 -17.112808
v -3.663506 69.851151 -31.102877
v 26.858337 76.964279 -15.018055
v 15.198425 65.456345 -27.283813
v 31.973801 40.697811 -2.927574
v 16.269594 43.982338 -27.734856

# UV coordinates
vt 0.516544 0.950676
vt 0.329109 0.991770
vt 0.393764 0.737696
vt 0.440619 0.723441
vt 0.619381 0.623529
vt 0.649872 0.520798
vt 0.722233 0.697152
vt 0.676015 0.698374
vt 0.966069 0.838284
vt 0.980564 0.925145
vt 0.927706 0.999500
vt 0.854884 0.822023
vt 0.786739 0.268140
vt 0.613904 0.224342
vt 0.682105 0.012835
vt 0.774915 0.005977
vt 0.346607 0.911100
vt 0.223550 0.990463
vt 0.203142 0.746191
vt 0.287787 0.707010
vt 0.139636 0.242829
vt 0.225904 0.236003
vt 0.261669 0.386806
vt 0.077176 0.445561
vt 0.701309 0.252434
vt 0.815898 0.282524
vt 0.854582 0.449190
vt 0.613904 0.382171
vt 0.405785 0.176547
vt 0.492135 0.005977
vt 0.601183 0.029397
vt 0.580471 0.245284
vt 0.434651 0.219573
vt 0.469357 0.276840
vt 0.487178 0.338219
vt 0.378401 0.401694
vt 0.033361 0.797231
vt 0.044192 0.633741
vt 0.121055 0.613904
vt 0.064495 0.797030
vt 0.602113 0.949087
vt 0.580265 0.973295
vt 0.510696 0.924170
vt 0.460553 0.728917
vt 0.206891 0.504368
vt 0.279070 0.584827
vt 0.104560 0.602757
vt 0.443846 0.575467
vt 0.419942 0.653925
vt 0.383878 0.594419
vt 0.391020 0.564613
vt 0.551102 0.525519
vt 0.476984 0.378401
vt 0.641902 0.422996
vt 0.078911 0.622210
vt 0.005977 0.544772
vt 0.190266 0.504368
vt 0.205788 0.804581
vt 0.168470 0.989432
vt 0.005977 0.960299
vt 0.134558 0.663196
vt 0.651406 0.728917
vt 0.621930 0.964985
vt 0.476984 0.747679
vt 0.519877 0.493414
vt 0.493778 0.557063
vt 0.432939 0.563123
vt 0.367447 0.506524
vt 0.351017 0.416701
vt 0.469542 0.378401
vt 0.520074 0.491159
vt 0.367677 0.504698
vt 0.444123 0.197666
vt 0.646980 0.301610
vt 0.531205 0.366661
vt 0.490062 0.311593
vt 0.883284 0.444123
vt 0.942249 0.611350
vt 0.913113 0.624066
vt 0.707010 0.524530
vt 0.338928 0.704294
vt 0.268864 0.605757
vt 0.364147 0.564613
vt 0.377536 0.591242
vt 0.103189 0.438646
vt 0.214057 0.471069
vt 0.030988 0.537017
vt 0.011454 0.515711
vt 0.823983 0.627545
vt 0.725581 0.694981
vt 0.652242 0.482460
vt 0.335941 0.441388
vt 0.337019 0.566738
vt 0.164805 0.422215
vt 0.969905 0.729248
vt 0.925490 0.806909
vt 0.875925 0.819690
vt 0.827500 0.586520
vt 0.979237 0.534654
vt 0.843931 0.396185
vt 0.959067 0.274341
vt 0.971439 0.268375
vt 0.854402 0.301229
vt 0.783686 0.037697
vt 0.988751 0.005977
vt 0.203142 0.228389
vt 0.322182 0.142897
vt 0.427633 0.194763
vt 0.254648 0.591997
vt 0.324972 0.710892
vt 0.153851 0.691581
vt 0.192189 0.212758
vt 0.267203 0.000500
vt 0.450279 0.066952
vt 0.261391 0.005977
vt 0.104318 0.289735
vt 0.000500 0.146708
vt 0.646765 0.807485
vt 0.830097 0.745348
vt 0.750551 0.862607
vt 0.088588 0.395529
vt 0.000500 0.433567
vt 0.017147 0.181235
vt 0.352878 0.403588
vt 0.236003 0.251910
vt 0.441374 0.197666
vt 0.641288 0.838454
vt 0.874770 0.911472
vt 0.672392 0.973042
vt 0.553659 0.548182
vt 0.670719 0.700100
vt 0.559950 0.674291

# vertex normals
vn -0.109098 -0.261598 0.958991
vn -0.109098 -0.261598 0.958991
vn -0.109098 -0.261598 0.958991
vn -0.276168 -0.952646 0.127271
vn -0.276168 -0.952646 0.127271
vn -0.292999 -0.949229 0.114525
vn -0.781143 -0.316119 0.538409
vn -0.781143 -0.316119 0.538409
vn -0.781143 -0.316119 0.538409
vn 0.502684 -0.466186 0.727997
vn 0.502684 -0.466186 0.727997
vn 0.502684 -0.466186 0.727997
vn 0.838938 -0.541054 -0.058680
vn 0.838938 -0.541054 -0.058680
vn 0.838938 -0.541054 -0.058680
vn 0.079168 -0.406239 -0.910331
vn 0.079168 -0.406239 -0.910331
vn 0.079168 -0.406239 -0.910331
vn 0.079168 -0.406239 -0.910331
vn -0.883949 -0.388635 -0.259994
vn -0.883949 -0.388635 -0.259994
vn -0.883949 -0.388635 -0.259994
vn -0.883949 -0.388635 -0.259994
vn -0.430602 0.890802 -0.145102
vn -0.430602 0.890801 -0.145102
vn -0.430602 0.890801 -0.145102
vn -0.466332 0.876571 -0.118987
vn -0.466333 0.876571 -0.118987
vn -0.466333 0.876571 -0.118987
vn -0.466332 0.876571 -0.118987
vn -0.538165 0.459874 0.706325
vn -0.538165 0.459874 0.706325
vn -0.538164 0.459874 0.706325
vn -0.558182 0.294373 0.775743
vn 0.361621 0.838164 0.408302
vn 0.361621 0.838164 0.408302
vn 0.361621 0.838164 0.408302
vn 0.361621 0.838164 0.408302
vn -0.846299 -0.140180 0.513934
vn -0.108107 -0.189230 0.975964
vn -0.108107 -0.189230 0.975964
vn -0.932280 0.339283 -0.125464
vn -0.932280 0.339283 -0.125464
vn -0.523398 0.407100 0.748548
vn -0.523398 0.407100 0.748548
vn -0.523398 0.407100 0.748548
vn 0.733911 0.659128 0.164088
vn 0.733911 0.659128 0.164088
vn 0.770260 0.615141 0.168227
vn 0.770260 0.615141 0.168227
vn 0.770260 0.615141 0.168227
vn 0.770260 0.615141 0.168227
vn 0.227136 0.450706 -0.863292
vn 0.227136 0.450706 -0.863292
vn 0.180097 0.447830 -0.875793
vn 0.180097 0.447830 -0.875793
vn 0.862957 0.501890 -0.058407
vn 0.862957 0.501890 -0.058407
vn 0.862957 0.501890 -0.058407
vn 0.373217 0.345525 -0.861000
vn 0.373217 0.345525 -0.861000
vn 0.373217 0.345525 -0.861000
vn 0.767316 -0.102790 -0.632977
vn 0.767316 -0.102790 -0.632977
vn 0.846902 0.053358 -0.529065
vn 0.846902 0.053358 -0.529065
vn 0.172160 0.403426 0.898670
vn 0.172160 0.403426 0.898670
vn 0.172160 0.403426 0.898670
vn 0.321869 0.222036 0.920381
vn 0.321869 0.222036 0.920381
vn 0.889440 0.093942 0.447294
vn 0.889440 0.093942 0.447294
vn 0.889440 0.093942 0.447294
vn 0.801988 0.446315 0.397012
vn 0.801988 0.446315 0.397012
vn 0.801988 0.446315 0.397012
vn 0.829810 -0.130460 -0.542583
vn 0.829810 -0.130460 -0.542583
vn -0.807480 0.264224 -0.527410
vn -0.807480 0.264224 -0.527410
vn -0.807480 0.264224 -0.527410
vn -0.732565 -0.039159 -0.679569
vn -0.732565 -0.039159 -0.679569
vn -0.732565 -0.039159 -0.679569
vn 0.841485 -0.539455 -0.029849
vn 0.841485 -0.539455 -0.029849
vn 0.977966 0.175588 0.112917
vn 0.977966 0.175588 0.112917
vn 0.977967 0.175588 0.112917
vn -0.022069 -0.145778 -0.989071
vn 0.074018 -0.482587 -0.872715
vn 0.074018 -0.482587 -0.872715
vn 0.074018 -0.482587 -0.872715
vn 0.205239 0.030785 -0.978228
vn 0.205239 0.030785 -0.978228

# Mesh
g Diana
usemtl Material _25
f 4/4/2 1/1/1 2/2/2 3/3/3
f 4/7/5 3/8/4 5/5/4 6/6/4
f 7/9/6 8/10/6 4/11/6 6/12/6
f 5/15/9 3/16/9 2/13/7 9/14/8
f 10/17/10 1/18/11 4/19/12 8/20/12
f 11/23/14 10/24/15 8/21/13 7/22/13
f 11/28/19 7/25/16 6/26/17 12/27/18
f 6/30/21 5/31/22 9/32/23 12/29/20
f 14/34/25 15/35/26 16/36/24 13/33/24
f 13/39/29 16/40/30 17/37/27 18/38/28
f 19/41/31 13/42/31 18/43/32 20/44/33
f 2/45/34 21/46/34 20/47/34
f 22/48/35 14/49/36 13/50/37 19/51/38
f 20/52/39 9/53/39 2/54/39
f 21/55/40 2/56/40 1/57/41
f 18/59/43 17/60/43 9/61/43 20/58/42
f 21/62/44 19/63/45 20/64/46
f 22/68/48 23/65/47 15/66/48 14/67/47
f 24/69/49 25/70/50 23/71/51 22/72/52
f 23/76/54 26/73/53 16/74/53 15/75/54
f 26/80/56 27/77/55 17/78/55 16/79/55
f 28/83/58 26/84/59 23/81/57 25/82/57
f 26/87/60 28/88/62 29/85/60 27/86/61
f 29/89/63 28/90/64 30/91/64
f 31/92/65 29/93/65 30/94/66
f 24/95/67 22/96/68 19/97/69 21/98/68
f 24/99/70 21/100/71 1/101/71
f 30/105/74 25/102/72 24/103/73 1/104/73
f 1/106/75 10/107/76 30/108/77
f 11/109/78 31/110/78 30/111/79
f 27/112/80 12/113/81 9/114/82
f 9/115/83 17/116/84 27/117/85
f 10/118/86 11/119/87 30/120/86
f 28/121/88 25/122/89 30/123/90
f 27/124/91 31/125/91 12/126/91
f 11/127/92 12/128/93 31/129/94
f 31/130/95 27/131/96 29/132/96
